<svg xmlns="http://www.w3.org/2000/svg" viewBox="0 0 92.68 117.13"><defs><style>.cls-1{fill:#9cc;}.cls-2{fill:#f99b1c;}</style></defs><g id="Layer_2" data-name="Layer 2"><g id="Layer_1-2" data-name="Layer 1"><ellipse class="cls-1" cx="46.24" cy="106.29" rx="10" ry="36" transform="translate(-64.85 139.38) rotate(-83.08)"/><path class="cls-2" d="M46.42,19.77a14.34,14.34,0,0,0-3.06.22A26.89,26.89,0,0,0,20.19,42.28a26.37,26.37,0,0,0,5.46,20.77c5,6.34,7.65,13.33,7.65,20.76A2.07,2.07,0,0,0,35.49,86h22.3A2.06,2.06,0,0,0,60,83.81a29.85,29.85,0,0,1,7-19.89A26.33,26.33,0,0,0,73.3,46.65,27.14,27.14,0,0,0,46.42,19.77Z"/><path d="M56.83,93.77h-21a2.19,2.19,0,1,0,0,4.37h21a2.19,2.19,0,1,0,0-4.37Z"/><path d="M46.34,19a14.34,14.34,0,0,0-3.06.22A26.89,26.89,0,0,0,20.11,41.53,26.4,26.4,0,0,0,25.57,62.3c5,6.34,7.65,13.33,7.65,20.76a2.07,2.07,0,0,0,2.19,2.19h22.3a2.07,2.07,0,0,0,2.18-2.19,29.85,29.85,0,0,1,7-19.89A26.34,26.34,0,0,0,73.23,45.9,27.15,27.15,0,0,0,46.34,19Zm1.31,61.64H44.81L43.5,59.24a22.67,22.67,0,0,0,5.46,0ZM63.17,60.11c-4.81,5.47-7.43,12.68-7.87,20.55H52l1.31-22.08c5.47-1.09,10.06-3.5,10.06-7.87a7,7,0,0,0-14-.22l-.22,4.16a29.8,29.8,0,0,1-6.12,0l-.22-3.94a7,7,0,0,0-14,0c0,2,1.1,4.81,6.12,6.78a20.82,20.82,0,0,0,3.94,1.09l1.31,22.08H36.94a37.25,37.25,0,0,0-8.52-21.2,22.25,22.25,0,0,1-4.59-17.27A22.49,22.49,0,0,1,43.28,23.61c.87,0,1.75-.22,2.62-.22A22.39,22.39,0,0,1,68.2,45.68,19.51,19.51,0,0,1,63.17,60.11Zm-9.4-5.9L54,50.93a2.63,2.63,0,0,1,5.25,0C59.24,52,57.27,53.33,53.77,54.21Zm-14.86,0c-3.5-.88-5.47-2.19-5.47-3.28a2.53,2.53,0,0,1,2.63-2.62,2.58,2.58,0,0,1,2.62,2.84Z"/><path d="M90.49,44.15h-12a2.19,2.19,0,0,0,0,4.38h12a2.07,2.07,0,0,0,2.19-2.19A2.19,2.19,0,0,0,90.49,44.15Z"/><path d="M16.39,46.34a2.07,2.07,0,0,0-2.18-2.19h-12a2.19,2.19,0,1,0,0,4.38h12A2.19,2.19,0,0,0,16.39,46.34Z"/><path d="M46.34,15.74a2.07,2.07,0,0,0,2.19-2.19V2.19a2.19,2.19,0,1,0-4.38,0V13.55A2.07,2.07,0,0,0,46.34,15.74Z"/><path d="M79.13,13.55a2.12,2.12,0,0,0-3.06,0l-8.31,8.31a2.16,2.16,0,1,0,3.06,3.06l8.31-8.31A2.12,2.12,0,0,0,79.13,13.55Z"/><path d="M25.14,67.54a2.12,2.12,0,0,0-3.06,0l-8.53,8.53a2.16,2.16,0,0,0,3.06,3.06l8.53-8.53A2.12,2.12,0,0,0,25.14,67.54Z"/><path d="M79.13,76.07,70.6,67.54a2.16,2.16,0,1,0-3.06,3.06l8.53,8.53a2.16,2.16,0,0,0,3.06-3.06Z"/><path d="M24.92,21.64l-8.09-8.09a2.16,2.16,0,0,0-3.06,3.06l8.09,8.09a2.16,2.16,0,1,0,3.06-3.06Z"/><path d="M56.83,87h-21a2.19,2.19,0,1,0,0,4.37h21a2.19,2.19,0,1,0,0-4.37Z"/><path d="M51.37,100.55H42.19a2.19,2.19,0,1,0,0,4.37h9.18a2.06,2.06,0,0,0,2.18-2.18A2.19,2.19,0,0,0,51.37,100.55Z"/></g></g></svg>