<svg xmlns="http://www.w3.org/2000/svg" viewBox="0 0 89.07 71.56"><defs><style>.cls-1{fill:#f99b1c;}</style></defs><g id="Layer_2" data-name="Layer 2"><g id="Layer_1-2" data-name="Layer 1"><path d="M86.15,47.77l2.66-3.83a1.48,1.48,0,0,0,.11-1.48,1.5,1.5,0,0,0-1.32-.78H75.42v-.32a1.48,1.48,0,0,0-3,0V60.94a4.69,4.69,0,0,0-3,3.11H35.35a6.78,6.78,0,0,0-13.48,0H19A13,13,0,0,1,9.8,41.82,12.9,12.9,0,0,1,19,38H32.4a6.81,6.81,0,0,0,12.86,0H64.81a16,16,0,1,0,0-31.94H56.27a6.78,6.78,0,0,0-13.48,0H13.55A6.8,6.8,0,1,0,13.21,9H43.1A6.81,6.81,0,0,0,56,9H64.8a13,13,0,0,1,0,26.05H45.66a6.78,6.78,0,0,0-13.48,0H19A16,16,0,1,0,18,67c.32,0,.65,0,1,0h3.08A6.82,6.82,0,0,0,35,67H69.53a4.7,4.7,0,1,0,5.89-6v-7H87.6a1.5,1.5,0,0,0,1.32-.78,1.48,1.48,0,0,0-.11-1.48ZM6.8,10.64a3.86,3.86,0,1,1,3.87-3.89A3.87,3.87,0,0,1,6.8,10.64Zm46.55-3.3a3.87,3.87,0,0,1-7.66,0,2.88,2.88,0,0,1,0-.59,3.88,3.88,0,0,1,7.74,0A2.88,2.88,0,0,1,53.35,7.34ZM38.84,31.9a3.88,3.88,0,0,1,3.88,3.88,2.62,2.62,0,0,1,0,.56,3.88,3.88,0,0,1-7.67,0,4.34,4.34,0,0,1,0-.51A3.88,3.88,0,0,1,38.84,31.9ZM32.4,65.31a2.93,2.93,0,1,1,.08-.48A2.67,2.67,0,0,1,32.4,65.31ZM74,67.16a1.77,1.77,0,0,1-.32-3.53,1.71,1.71,0,0,1,.32,0,1.77,1.77,0,0,1,0,3.53Zm9.21-18.55L84.79,51H75.42V44.57h9.37l-1.63,2.36A1.44,1.44,0,0,0,83.16,48.61Z"/><path class="cls-1" d="M83.16,48.61,84.79,51H75.42V44.57h9.37l-1.63,2.36A1.44,1.44,0,0,0,83.16,48.61Z"/></g></g></svg>