<svg xmlns="http://www.w3.org/2000/svg" viewBox="0 0 100 99.1"><defs><style>.cls-1{fill:#f99b1c;}</style></defs><g id="Layer_2" data-name="Layer 2"><g id="Layer_1-2" data-name="Layer 1"><path d="M53.5,66a1.11,1.11,0,0,1-1.1-1.1V60a1.1,1.1,0,0,1,2.2,0v4.9A1.11,1.11,0,0,1,53.5,66Z"/><path d="M66.3,60.7a1.14,1.14,0,0,1-.8-.3L62,56.9a1.13,1.13,0,1,1,1.6-1.6l3.5,3.5a1.21,1.21,0,0,1,0,1.6A1.91,1.91,0,0,1,66.3,60.7Z"/><path d="M71.6,47.8H66.7a1.1,1.1,0,1,1,0-2.2h4.9a1.11,1.11,0,0,1,1.1,1.1A1,1,0,0,1,71.6,47.8Z"/><path d="M62.9,38.4a1.14,1.14,0,0,1-.8-.3,1.21,1.21,0,0,1,0-1.6L65.6,33a1.13,1.13,0,1,1,1.6,1.6l-3.5,3.5A1.6,1.6,0,0,1,62.9,38.4Z"/><path d="M53.5,34.5a1.11,1.11,0,0,1-1.1-1.1V28.5a1.1,1.1,0,0,1,2.2,0v4.9A1.11,1.11,0,0,1,53.5,34.5Z"/><path d="M44.1,38.4a1.14,1.14,0,0,1-.8-.3l-3.5-3.5A1.13,1.13,0,1,1,41.4,33l3.5,3.5a1.21,1.21,0,0,1,0,1.6A1.6,1.6,0,0,1,44.1,38.4Z"/><path d="M40.2,47.8H35.3a1.1,1.1,0,0,1,0-2.2h4.9a1.1,1.1,0,0,1,0,2.2Z"/><path d="M40.6,60.7a1.14,1.14,0,0,1-.8-.3,1.21,1.21,0,0,1,0-1.6l3.5-3.5a1.13,1.13,0,0,1,1.6,1.6l-3.5,3.5A1.91,1.91,0,0,1,40.6,60.7Z"/><path d="M87.7,25.5a8.9,8.9,0,1,1,8.9-8.9A8.92,8.92,0,0,1,87.7,25.5Zm0-15.6a6.7,6.7,0,1,0,6.7,6.7A6.7,6.7,0,0,0,87.7,9.9Z"/><path d="M91,80.8a8,8,0,1,1,8-8A8,8,0,0,1,91,80.8ZM91,67a5.8,5.8,0,1,0,5.8,5.8A5.8,5.8,0,0,0,91,67Z"/><path d="M8,54.7a8,8,0,1,1,8-8A8,8,0,0,1,8,54.7ZM8,40.9a5.8,5.8,0,1,0,5.8,5.8A5.8,5.8,0,0,0,8,40.9Z"/><path d="M53.5,21.6a7,7,0,1,1,7-7A7,7,0,0,1,53.5,21.6Zm0-11.7a4.7,4.7,0,1,0,4.7,4.7A4.69,4.69,0,0,0,53.5,9.9Z"/><path d="M29.3,74.9a7,7,0,1,1,7-7A7,7,0,0,1,29.3,74.9Zm0-11.7A4.7,4.7,0,1,0,34,67.9,4.76,4.76,0,0,0,29.3,63.2Z"/><path d="M85.5,51.5a4.87,4.87,0,0,1-4.8-4.8,4.8,4.8,0,1,1,9.6,0A4.87,4.87,0,0,1,85.5,51.5Zm0-7.4a2.6,2.6,0,1,0,2.6,2.6A2.72,2.72,0,0,0,85.5,44.1Z"/><path d="M53.5,99.1a7,7,0,1,1,7-7A7.15,7.15,0,0,1,53.5,99.1Zm0-11.7a4.7,4.7,0,1,0,4.7,4.7A4.69,4.69,0,0,0,53.5,87.4Z"/><path d="M24.3,21.4A8.7,8.7,0,1,1,33,12.7,8.71,8.71,0,0,1,24.3,21.4Zm0-15.2a6.5,6.5,0,1,0,6.5,6.5A6.49,6.49,0,0,0,24.3,6.2Z"/><path d="M96.2,63.2a.6.6,0,0,1-.4-.1,1.08,1.08,0,0,1-.7-1.4,45.22,45.22,0,0,0,2.6-15.1,44.61,44.61,0,0,0-4.2-19,1.12,1.12,0,1,1,2-1A45.3,45.3,0,0,1,100,46.5a44.59,44.59,0,0,1-2.8,15.8A1,1,0,0,1,96.2,63.2Z"/><path d="M78.4,9.8a1.42,1.42,0,0,1-.6-.2A44.51,44.51,0,0,0,34.5,6.5a1.12,1.12,0,0,1-1-2A45.3,45.3,0,0,1,53.4,0,46.19,46.19,0,0,1,78.9,7.6a1,1,0,0,1,.3,1.5A.83.83,0,0,1,78.4,9.8Z"/><path d="M9.6,36.1H9.3a1.14,1.14,0,0,1-.8-1.4,45.56,45.56,0,0,1,6.4-14,1.08,1.08,0,0,1,1.8,1.2,44.53,44.53,0,0,0-6.1,13.3A1.06,1.06,0,0,1,9.6,36.1Z"/><path d="M42.2,91.8h-.3A46.43,46.43,0,0,1,8.4,58.3a1.14,1.14,0,0,1,2.2-.6,44.23,44.23,0,0,0,32,31.9,1.14,1.14,0,0,1,.8,1.4A1.3,1.3,0,0,1,42.2,91.8Z"/><path d="M63.8,92a1.12,1.12,0,0,1-.3-2.2,44.34,44.34,0,0,0,18.9-9.7,1.13,1.13,0,0,1,1.5,1.7A47.07,47.07,0,0,1,64,91.9C64,92,63.9,92,63.8,92Z"/><path d="M53.5,79.8a33.71,33.71,0,0,1-16.7-4.5,1.1,1.1,0,0,1,1.1-1.9,31.43,31.43,0,0,0,15.6,4.2A30.83,30.83,0,0,0,83.4,54.5a1.14,1.14,0,0,1,2.2.6A33.25,33.25,0,0,1,53.5,79.8Z"/><path d="M84.5,39.7a1.17,1.17,0,0,1-1.1-.8A30.93,30.93,0,0,0,63.5,17.4a1.11,1.11,0,0,1,.7-2.1,33,33,0,0,1,21.4,23,1.14,1.14,0,0,1-.8,1.4Z"/><path d="M24,60.3a1.2,1.2,0,0,1-1-.7,33.13,33.13,0,0,1,19.2-44,1.11,1.11,0,0,1,.7,2.1A31.05,31.05,0,0,0,25,58.8a1.18,1.18,0,0,1-.6,1.5C24.2,60.2,24.1,60.3,24,60.3Z"/><polygon class="cls-1" points="48.68 36.79 53.8 40.68 59.91 38.67 57.78 44.74 61.59 49.92 55.15 49.78 51.4 55 49.54 48.84 43.42 46.88 48.7 43.21 48.68 36.79"/></g></g></svg>