<svg xmlns="http://www.w3.org/2000/svg" viewBox="0 0 123.06 77.84"><defs><style>.cls-1{fill:#f99b1e;stroke:#000;stroke-miterlimit:10;}.cls-2{fill:#9cc;}.cls-3{fill:#ccedec;}.cls-4{fill:#f99b1c;}</style></defs><g id="Layer_2" data-name="Layer 2"><g id="Layer_1-2" data-name="Layer 1"><path class="cls-1" d="M44.74,22.53a1.19,1.19,0,0,1,1.2-1.19H74.53a1.19,1.19,0,0,1,1.19,1.19v6a1.19,1.19,0,0,1-1.19,1.19h0a1.19,1.19,0,0,1-1.19-1.19V24.91a1.19,1.19,0,0,0-1.19-1.19H48.32a1.19,1.19,0,0,0-1.19,1.19v3.58a1.2,1.2,0,0,1-1.19,1.19h0a1.2,1.2,0,0,1-1.2-1.19ZM26.87,35.63a3.57,3.57,0,0,1,3.58-3.57H90a3.57,3.57,0,0,1,3.57,3.57V53.51H65V51.12a3.57,3.57,0,0,0-3.58-3.57H59a3.57,3.57,0,0,0-3.57,3.57v2.39H26.87Zm31,19.07V51.12A1.19,1.19,0,0,1,59,49.93h2.38a1.2,1.2,0,0,1,1.2,1.19v7.15a1.19,1.19,0,0,1-1.2,1.19H59a1.19,1.19,0,0,1-1.19-1.19ZM93.59,73.76A3.57,3.57,0,0,1,90,77.34H30.45a3.58,3.58,0,0,1-3.58-3.58V55.89h28.6v2.38A3.57,3.57,0,0,0,59,61.85h2.38A3.58,3.58,0,0,0,65,58.27V55.89H93.59Z"/><polygon class="cls-2" points="17.32 0 19.69 1.8 22.52 0.87 21.54 3.68 23.3 6.08 20.32 6.02 18.58 8.43 17.73 5.58 14.89 4.68 17.34 2.98 17.32 0"/><circle class="cls-3" cx="24.54" cy="19.27" r="3"/><polygon class="cls-4" points="3.76 11.62 7.42 14.4 11.79 12.96 10.27 17.3 12.98 21 8.38 20.91 5.7 24.63 4.38 20.23 0 18.83 3.78 16.21 3.76 11.62"/><polygon class="cls-2" points="113.57 43.55 117.34 46.41 121.83 44.93 120.26 49.39 123.06 53.2 118.33 53.1 115.57 56.93 114.21 52.4 109.71 50.97 113.59 48.28 113.57 43.55"/><circle class="cls-3" cx="107.48" cy="64.59" r="3"/></g></g></svg>