<svg xmlns="http://www.w3.org/2000/svg" viewBox="0 0 91 87.4"><defs><style>.cls-1{fill:none;stroke:#000;}.cls-1,.cls-2{stroke-miterlimit:10;fill-rule:evenodd;}.cls-2{fill:#f99b1c;stroke:#f89521;stroke-width:2px;}</style></defs><g id="Layer_2" data-name="Layer 2"><g id="Layer_1-2" data-name="Layer 1"><path class="cls-1" d="M56.3.5a1.79,1.79,0,0,0-1.8,1.8V9.5a1.79,1.79,0,0,0,1.8,1.8h7.2a1.79,1.79,0,0,0,1.8-1.8V2.3A1.79,1.79,0,0,0,63.5.5Z"/><path class="cls-1" d="M37.7,4.1a1.19,1.19,0,0,0-1.2,1.2v4.8a1.19,1.19,0,0,0,1.2,1.2h4.8a1.19,1.19,0,0,0,1.2-1.2V5.3a1.19,1.19,0,0,0-1.2-1.2Z"/><path class="cls-1" d="M5.9,7.7A5.39,5.39,0,0,0,.5,13.1V34.7a5.39,5.39,0,0,0,5.4,5.4H27.5a5.39,5.39,0,0,0,5.4-5.4V13.1a5.39,5.39,0,0,0-5.4-5.4Z"/><path class="cls-1" d="M47.9,7.7a.6.6,0,0,0-.6.6v2.4a.6.6,0,0,0,.6.6h2.4a.6.6,0,0,0,.6-.6V8.3a.6.6,0,0,0-.6-.6Z"/><path class="cls-1" d="M38.9,14.9a2.39,2.39,0,0,0-2.4,2.4v9.6a2.39,2.39,0,0,0,2.4,2.4h9.6a2.39,2.39,0,0,0,2.4-2.4V17.3a2.39,2.39,0,0,0-2.4-2.4Z"/><path class="cls-1" d="M55.7,14.9a1.19,1.19,0,0,0-1.2,1.2v4.8a1.19,1.19,0,0,0,1.2,1.2h4.8a1.19,1.19,0,0,0,1.2-1.2V16.1a1.19,1.19,0,0,0-1.2-1.2Z"/><path class="cls-1" d="M65.9,14.9a.6.6,0,0,0-.6.6v2.4a.6.6,0,0,0,.6.6h2.4a.6.6,0,0,0,.6-.6V15.5a.6.6,0,0,0-.6-.6Z"/><path class="cls-1" d="M55.1,25.7a.6.6,0,0,0-.6.6v2.4a.6.6,0,0,0,.6.6h2.4a.6.6,0,0,0,.6-.6V26.3a.6.6,0,0,0-.6-.6Z"/><path class="cls-1" d="M83.9,29.3a.6.6,0,0,0-.6.6v2.4a.6.6,0,0,0,.6.6h2.4a.6.6,0,0,0,.6-.6V29.9a.6.6,0,0,0-.6-.6Z"/><path class="cls-1" d="M37.7,32.9a1.19,1.19,0,0,0-1.2,1.2v4.8a1.19,1.19,0,0,0,1.2,1.2h4.8a1.19,1.19,0,0,0,1.2-1.2V34.1a1.19,1.19,0,0,0-1.2-1.2Z"/><path class="cls-1" d="M50.3,32.9a3,3,0,0,0-3,3v12a3,3,0,0,0,3,3h12a3,3,0,0,0,3-3v-12a3,3,0,0,0-3-3Z"/><path class="cls-1" d="M70.7,32.9a1.79,1.79,0,0,0-1.8,1.8v7.2a1.79,1.79,0,0,0,1.8,1.8h7.2a1.79,1.79,0,0,0,1.8-1.8V34.7a1.79,1.79,0,0,0-1.8-1.8Z"/><path class="cls-1" d="M84.5,36.5a1.19,1.19,0,0,0-1.2,1.2v4.8a1.19,1.19,0,0,0,1.2,1.2h4.8a1.19,1.19,0,0,0,1.2-1.2V37.7a1.19,1.19,0,0,0-1.2-1.2Z"/><path class="cls-1" d="M11.9,43.7a.6.6,0,0,0-.6.6v2.4a.6.6,0,0,0,.6.6h2.4a.6.6,0,0,0,.6-.6V44.3a.6.6,0,0,0-.6-.6Z"/><path class="cls-1" d="M22.7,43.7a4.19,4.19,0,0,0-4.2,4.2V64.7a4.19,4.19,0,0,0,4.2,4.2H39.5a4.19,4.19,0,0,0,4.2-4.2V47.9a4.19,4.19,0,0,0-4.2-4.2Z"/><path class="cls-1" d="M69.5,47.3a.6.6,0,0,0-.6.6v2.4a.6.6,0,0,0,.6.6h2.4a.6.6,0,0,0,.6-.6V47.9a.6.6,0,0,0-.6-.6Z"/><path class="cls-1" d="M78.5,47.3a2.39,2.39,0,0,0-2.4,2.4v9.6a2.39,2.39,0,0,0,2.4,2.4h9.6a2.39,2.39,0,0,0,2.4-2.4V49.7a2.39,2.39,0,0,0-2.4-2.4Z"/><path class="cls-1" d="M8.9,50.9a1.19,1.19,0,0,0-1.2,1.2v4.8a1.19,1.19,0,0,0,1.2,1.2h4.8a1.19,1.19,0,0,0,1.2-1.2V52.1a1.19,1.19,0,0,0-1.2-1.2Z"/><path class="cls-1" d="M51.5,54.5a4.19,4.19,0,0,0-4.2,4.2V75.5a4.19,4.19,0,0,0,4.2,4.2H68.3a4.19,4.19,0,0,0,4.2-4.2V58.7a4.19,4.19,0,0,0-4.2-4.2Z"/><path class="cls-1" d="M2.9,61.7A2.39,2.39,0,0,0,.5,64.1v9.6a2.39,2.39,0,0,0,2.4,2.4h9.6a2.39,2.39,0,0,0,2.4-2.4V64.1a2.39,2.39,0,0,0-2.4-2.4Z"/><path class="cls-1" d="M19.7,72.5a1.19,1.19,0,0,0-1.2,1.2v4.8a1.19,1.19,0,0,0,1.2,1.2h4.8a1.19,1.19,0,0,0,1.2-1.2V73.7a1.19,1.19,0,0,0-1.2-1.2Z"/><path class="cls-1" d="M31.7,72.5a2.39,2.39,0,0,0-2.4,2.4v9.6a2.39,2.39,0,0,0,2.4,2.4h9.6a2.39,2.39,0,0,0,2.4-2.4V74.9a2.39,2.39,0,0,0-2.4-2.4Z"/><path class="cls-1" d="M47.9,83.3a.6.6,0,0,0-.6.6v2.4a.6.6,0,0,0,.6.6h2.4a.6.6,0,0,0,.6-.6V83.9a.6.6,0,0,0-.6-.6Z"/><path class="cls-2" d="M23.1,44.1a4.19,4.19,0,0,0-4.2,4.2V65.1a4.19,4.19,0,0,0,4.2,4.2H39.9a4.19,4.19,0,0,0,4.2-4.2V48.3a4.19,4.19,0,0,0-4.2-4.2Z"/></g></g></svg>