<svg xmlns="http://www.w3.org/2000/svg" viewBox="0 0 12 12"><defs><style>.cls-1{fill:#000;}</style></defs><title>Asset 2</title><g id="Layer_2" data-name="Layer 2"><g id="Layer_1-2" data-name="Layer 1"><path class="cls-1" d="M2.58,12H0V4H2.58ZM1.38,2.77h0A1.33,1.33,0,0,1,0,1.38,1.33,1.33,0,0,1,1.39,0,1.33,1.33,0,0,1,2.77,1.38,1.33,1.33,0,0,1,1.38,2.77ZM12,12H9.42V7.62c0-1-.37-1.77-1.3-1.77a1.41,1.41,0,0,0-1.33,1,1.77,1.77,0,0,0-.09.64V12H4.13V4H6.7V5.1A2.64,2.64,0,0,1,9,3.8c1.69,0,3,1.11,3,3.52Z"/></g></g></svg>