<svg xmlns="http://www.w3.org/2000/svg" viewBox="0 0 12.96 10.55"><defs><style>.cls-1{fill:#000;}</style></defs><title>Asset 1</title><g id="Layer_2" data-name="Layer 2"><g id="Layer_1-2" data-name="Layer 1"><path class="cls-1" d="M13,1.25a5.59,5.59,0,0,1-1.53.42A2.67,2.67,0,0,0,12.6.2a5.15,5.15,0,0,1-1.69.64A2.62,2.62,0,0,0,9,0,2.66,2.66,0,0,0,6.31,2.66a3.08,3.08,0,0,0,.07.61A7.54,7.54,0,0,1,.9.49,2.62,2.62,0,0,0,.54,1.82,2.65,2.65,0,0,0,1.73,4,2.6,2.6,0,0,1,.52,3.71v0A2.67,2.67,0,0,0,2.65,6.35a2.69,2.69,0,0,1-.7.09,2.07,2.07,0,0,1-.5-.05A2.66,2.66,0,0,0,3.94,8.24,5.31,5.31,0,0,1,.63,9.38a4.44,4.44,0,0,1-.63,0,7.38,7.38,0,0,0,4.07,1.21A7.52,7.52,0,0,0,11.64,3c0-.11,0-.23,0-.34A5.45,5.45,0,0,0,13,1.25Z"/></g></g></svg>